<?xml version="1.0" standalone="no"?>
<!DOCTYPE svg PUBLIC "-//W3C//DTD SVG 20010904//EN"
 "http://www.w3.org/TR/2001/REC-SVG-20010904/DTD/svg10.dtd">
<svg version="1.0" xmlns="http://www.w3.org/2000/svg"
 width="662.000000pt" height="317.000000pt" viewBox="0 0 662.000000 317.000000"
 preserveAspectRatio="xMidYMid meet">

<g transform="translate(0.000000,317.000000) scale(0.100000,-0.100000)"
fill="#000000" stroke="none">
<path d="M2340 3144 c-256 -12 -718 -32 -1027 -43 -309 -12 -586 -26 -615 -31
-273 -51 -508 -234 -624 -485 -45 -98 -74 -211 -74 -293 0 -57 2 -63 17 -57
187 73 455 113 583 86 176 -37 283 -152 342 -368 19 -73 21 -114 29 -688 9
-656 11 -683 65 -817 29 -69 78 -150 133 -216 33 -40 250 -222 265 -222 3 0 6
469 6 1043 0 668 4 1073 11 1127 27 226 139 412 323 539 113 78 189 110 561
237 187 64 403 138 480 164 l140 48 -75 0 c-41 0 -284 -11 -540 -24z"/>
<path d="M4120 3012 c256 -88 494 -172 530 -187 205 -86 363 -228 445 -400 74
-157 69 -64 72 -1302 2 -622 7 -1113 12 -1113 17 0 218 168 267 223 68 76 127
185 160 292 l28 90 7 610 c6 561 8 617 26 700 77 344 285 460 677 380 66 -13
154 -36 195 -50 41 -14 76 -25 78 -25 8 0 2 85 -11 152 -64 333 -306 591 -631
673 -86 22 -136 26 -652 45 -307 11 -747 29 -978 40 -231 11 -481 22 -555 25
l-135 6 465 -159z"/>
<path d="M3085 3068 c-132 -48 -334 -122 -450 -164 -207 -75 -420 -153 -605
-221 -180 -66 -278 -138 -360 -264 -64 -99 -91 -200 -93 -349 l-2 -125 735 0
735 0 3 42 3 42 -126 3 -127 3 2 220 c0 121 4 223 8 226 4 4 63 25 132 48
l125 41 133 286 c73 157 132 289 130 293 -2 3 -111 -33 -243 -81z m-597 -858
c2 -124 -1 -165 -10 -172 -19 -11 -825 -10 -833 2 -9 14 19 72 49 99 20 19
115 50 398 132 205 59 378 106 383 105 6 -2 11 -68 13 -166z"/>
<path d="M3940 2615 c-379 -81 -664 -394 -766 -842 -25 -111 -30 -399 -9 -524
74 -448 350 -791 717 -891 119 -33 347 -33 461 0 337 96 592 385 693 783 35
139 45 412 20 567 -70 442 -344 788 -708 893 -95 27 -313 35 -408 14z m340
-214 c89 -33 136 -73 159 -136 62 -165 103 -679 82 -1020 -23 -363 -54 -599
-91 -682 -23 -53 -101 -106 -190 -129 -96 -24 -237 -16 -314 19 -75 35 -113
62 -130 96 -69 132 -118 892 -82 1271 33 351 56 458 108 509 39 38 117 78 178
91 71 15 217 5 280 -19z"/>
<path d="M4100 2061 c0 -47 -46 -210 -85 -300 -66 -156 -158 -271 -251 -316
l-48 -23 38 -16 c144 -60 288 -303 336 -566 18 -100 21 -101 36 -16 28 158
104 341 188 452 52 69 96 106 158 133 l43 18 -30 7 c-43 10 -118 67 -165 128
-82 103 -177 336 -196 478 -7 54 -24 69 -24 21z"/>
<path d="M2280 1809 c-157 -13 -277 -67 -369 -165 -85 -91 -121 -196 -121
-354 0 -148 49 -235 168 -298 77 -41 220 -82 315 -89 42 -3 77 -9 77 -12 -1
-3 -156 -123 -346 -266 -190 -143 -355 -268 -367 -277 -21 -17 -3 -18 375 -18
l396 0 284 260 c156 143 286 260 291 260 4 0 7 -117 7 -260 l0 -260 30 0 30 0
-2 740 -3 741 -345 2 c-190 1 -379 -1 -420 -4z m708 -511 l-3 -123 -285 -3
c-319 -3 -360 0 -396 31 -51 44 -48 141 5 189 l31 28 325 0 326 0 -3 -122z"/>
</g>
</svg>
